<svg version="1" xmlns="http://www.w3.org/2000/svg" width="885.333" height="885.333" viewBox="0 0 664.000000 664.000000"><path d="M0 332v332h664V0H0v332zm652 0v320H12V12h640v320z"/><path d="M160.1 128.1c-49.2 5.5-84.2 26.8-101.4 61.5-7.8 15.8-10.2 27.3-10.1 48.9.1 14 .5 18.4 2.2 25 4.4 16.2 14.6 33.2 27.1 44.7 16.5 15.3 34.5 24.7 76.5 39.7 43.2 15.5 58.8 24.7 65.8 38.9 3 6.1 3.3 7.4 3.3 16.2 0 8.4-.3 10.2-2.8 15.2-6.8 13.9-22.1 20.4-50.2 21.5-34.6 1.3-66.9-4.9-95.4-18.3-5.2-2.4-9.6-4.3-9.8-4.1-.1.2-5.2 14.1-11.2 30.8-6 16.7-11.2 31.2-11.6 32.2-.6 1.4 1.2 2.6 10.6 7.2 19.8 9.5 42.4 15.9 71.4 20.1 15.2 2.3 60.9 2.6 75.5.5 46.7-6.5 75.2-21.3 93-48.4 11.2-17 15.4-33 15.5-58.7 0-24.1-2.6-37.2-10.5-53.3-14.3-28.7-40.3-45.8-107.1-70.2-36.4-13.4-48.4-20.7-55-33.8-3-5.7-3.6-15.7-1.6-22.8 3.1-10.4 11.2-17.2 25.3-21.1 7-1.9 10.5-2.1 29.4-2.2 18.5 0 22.9.3 31.8 2.2 11.2 2.5 27.4 8 39.5 13.5l7.8 3.6 1-2.7c1.6-4.2 22.9-61.6 22.9-61.8 0 0-4.1-2-9.1-4.3-19.4-9-41.4-15.7-62-18.6-13.5-2-48.7-2.8-60.8-1.4zM468.1 128.1c-49.2 5.5-84.2 26.8-101.4 61.5-7.8 15.8-10.2 27.3-10.1 48.9.1 14 .5 18.4 2.2 25 4.4 16.2 14.6 33.2 27.1 44.7 16.5 15.3 34.5 24.7 76.5 39.7 43.2 15.5 58.8 24.7 65.8 38.9 3 6.1 3.3 7.4 3.3 16.2 0 8.4-.3 10.2-2.8 15.2-6.8 13.9-22.1 20.4-50.2 21.5-34.6 1.3-66.9-4.9-95.4-18.3-5.2-2.4-9.6-4.3-9.8-4.1-.1.2-5.2 14.1-11.2 30.8-6 16.7-11.2 31.2-11.6 32.2-.6 1.4 1.2 2.6 10.6 7.2 19.8 9.5 42.4 15.9 71.4 20.1 15.2 2.3 60.9 2.6 75.5.5 46.7-6.5 75.2-21.3 93-48.4 11.2-17 15.4-33 15.5-58.7 0-24.1-2.6-37.2-10.5-53.3-14.3-28.7-40.3-45.8-107.1-70.2-36.4-13.4-48.4-20.7-55-33.8-3-5.7-3.6-15.7-1.6-22.8 3.1-10.4 11.2-17.2 25.3-21.1 7-1.9 10.5-2.1 29.4-2.2 18.5 0 22.9.3 31.8 2.2 11.2 2.5 27.4 8 39.5 13.5l7.8 3.6 1-2.7c.6-1.5 5.8-15.5 11.6-31.2 5.8-15.6 10.7-29 11-29.6.2-.6-3.7-3-8.7-5.3-19.5-9-41.5-15.7-62.1-18.6-13.5-2-48.7-2.8-60.8-1.4z"/></svg>